<svg width="25" height="24" viewBox="0 0 25 24" fill="none" xmlns="http://www.w3.org/2000/svg">
<path d="M2.31806 18.875C3.33201 20.2853 4.63262 21.4654 6.13462 22.3378C7.63662 23.2103 9.30608 23.7554 11.0335 23.9374C10.1448 22.6 8.85292 21.3696 7.24015 20.4328C5.62738 19.4961 3.91944 18.9844 2.31806 18.875Z" fill="url(#paint0_linear_4235_47570)"/>
<path d="M9.40728 16.7029C6.30011 14.8977 2.93709 14.4377 0.530747 15.2504C0.763049 16.0181 1.06942 16.7615 1.44553 17.47C3.53623 17.4216 5.81892 17.9894 7.94298 19.2231C10.067 20.4568 11.6916 22.1595 12.6857 24C13.4879 23.9754 14.2859 23.8732 15.0684 23.6949C14.582 21.2024 12.5136 18.5085 9.40728 16.7029Z" fill="url(#paint1_linear_4235_47570)"/>
<path d="M24.2139 9.37567C23.8189 7.7688 23.1041 6.25802 22.1122 4.93353C21.1203 3.60904 19.8717 2.498 18.4409 1.66676C17.0102 0.835525 15.4266 0.301128 13.7847 0.0954825C12.1428 -0.110163 10.4763 0.01716 8.8847 0.469849C11.5436 0.795251 14.495 1.79342 17.3895 3.47493C20.2839 5.15644 22.615 7.22558 24.2139 9.37567Z" fill="url(#paint2_linear_4235_47570)"/>
<path d="M20.3453 15.2687C18.9843 13.0084 16.6528 10.8441 13.7808 9.17561C10.9087 7.50712 7.87433 6.5541 5.23898 6.49105C2.9205 6.43614 1.18042 7.11013 0.466161 8.33974C0.462093 8.34706 0.456398 8.35398 0.451924 8.3613C0.387657 8.59193 0.33234 8.82296 0.281902 9.05481C1.27926 8.66107 2.43484 8.44184 3.71977 8.41743C6.57719 8.36374 9.77507 9.27771 12.7261 10.9922C15.677 12.7066 18.0569 15.0328 19.4252 17.5409C20.0386 18.6708 20.4214 19.7833 20.5731 20.8461C20.7496 20.6883 20.9229 20.5252 21.0909 20.3556C21.0954 20.3479 21.0982 20.3397 21.1027 20.3316C21.8169 19.1008 21.5408 17.2557 20.3453 15.2687Z" fill="url(#paint3_linear_4235_47570)"/>
<path d="M11.5957 12.9364C7.19746 10.3812 2.33719 9.98094 -4.00216e-07 11.7641C0.00459032 12.3223 0.0472621 12.8795 0.127719 13.4318C0.81524 13.2234 1.52383 13.0922 2.24039 13.0405C4.85214 12.8441 7.73153 13.5717 10.3445 15.0905C12.9575 16.6094 15.0173 18.7513 16.1407 21.1158C16.4512 21.7635 16.6881 22.4441 16.8468 23.1446C17.3666 22.9409 17.872 22.7021 18.3595 22.43C18.7508 19.516 15.9951 15.492 11.5957 12.9364Z" fill="url(#paint4_linear_4235_47570)"/>
<path d="M22.6076 11.4856C21.2311 9.22769 18.8793 7.05727 15.9869 5.37779C13.0945 3.69831 10.0483 2.73025 7.40443 2.65256C5.38898 2.59439 3.82786 3.0829 3.01843 4.00582C6.37941 3.43637 10.8126 4.39345 15.1095 6.88969C19.4064 9.38592 22.4351 12.7636 23.6041 15.9651C24.0048 14.8055 23.6562 13.2073 22.6076 11.4856Z" fill="url(#paint5_linear_4235_47570)"/>
<defs>
<linearGradient id="paint0_linear_4235_47570" x1="16.125" y1="4.875" x2="5" y2="24" gradientUnits="userSpaceOnUse">
<stop offset="0.0001" stop-color="#C7F284"/>
<stop offset="1" stop-color="#00BEF0"/>
</linearGradient>
<linearGradient id="paint1_linear_4235_47570" x1="16.125" y1="4.875" x2="5" y2="24" gradientUnits="userSpaceOnUse">
<stop offset="0.0001" stop-color="#C7F284"/>
<stop offset="1" stop-color="#00BEF0"/>
</linearGradient>
<linearGradient id="paint2_linear_4235_47570" x1="16.125" y1="4.875" x2="5" y2="24" gradientUnits="userSpaceOnUse">
<stop offset="0.0001" stop-color="#C7F284"/>
<stop offset="1" stop-color="#00BEF0"/>
</linearGradient>
<linearGradient id="paint3_linear_4235_47570" x1="16.125" y1="4.875" x2="5" y2="24" gradientUnits="userSpaceOnUse">
<stop offset="0.0001" stop-color="#C7F284"/>
<stop offset="1" stop-color="#00BEF0"/>
</linearGradient>
<linearGradient id="paint4_linear_4235_47570" x1="16.125" y1="4.875" x2="5" y2="24" gradientUnits="userSpaceOnUse">
<stop offset="0.0001" stop-color="#C7F284"/>
<stop offset="1" stop-color="#00BEF0"/>
</linearGradient>
<linearGradient id="paint5_linear_4235_47570" x1="16.125" y1="4.875" x2="5" y2="24" gradientUnits="userSpaceOnUse">
<stop offset="0.0001" stop-color="#C7F284"/>
<stop offset="1" stop-color="#00BEF0"/>
</linearGradient>
</defs>
</svg>
